<svg width="640" height="640" viewBox="0 0 640 640" fill="none" xmlns="http://www.w3.org/2000/svg">
<circle cx="320" cy="320" r="250" fill="#3D3D3D"/>
<circle cx="320" cy="320" r="305" stroke="#3D3D3D" stroke-width="10"/>
<path d="M306.93 441.506C294.017 426.348 272.463 410.137 251.588 399.88C230.51 389.522 210.49 383.77 187.759 381.545C183.278 381.111 179.562 380.705 179.502 380.647C179.445 380.647 179.56 333.866 179.792 276.819L180.175 173.101L184.313 173.507C209.724 176.027 238.085 185.626 259.545 199.005C278.038 210.533 297.136 228.335 309.311 245.392L312.375 249.685V348.207C312.375 402.391 312.143 446.717 311.865 446.708C311.576 446.699 309.358 444.356 306.93 441.506ZM327.98 347.957V249.025L333.897 241.12C341.452 231.029 356.648 215.825 366.697 208.308C393.558 188.21 422.696 176.852 456.147 173.434L460.391 173V276.863V380.728L455.468 381.192C408.889 385.525 368.508 404.738 336.923 437.59L327.98 446.893V347.957ZM356.839 440.168C375.12 423.02 399.322 409.395 423.633 402.557C436.354 398.979 452.898 396.483 463.88 396.483C469.638 396.483 472.832 395.237 474.633 392.28C475.989 390.049 476.004 389.091 476.007 304.93L476.009 219.825L478.556 220.288C479.955 220.578 483.928 221.679 487.383 222.779L493.664 224.778V330.99C493.664 389.406 493.432 437.202 493.145 437.202C492.856 437.202 488.658 436.304 483.809 435.203C464.646 430.887 448.864 429.404 428.138 429.963C402.998 430.658 383.461 434.163 360.235 442.187L351.407 445.237L356.839 440.168ZM279.429 441.819C269.783 438.366 253.854 434.296 243.1 432.541C228.479 430.166 218.391 429.535 200.471 429.934C182.665 430.311 171.895 431.556 157.203 434.89C153.094 435.817 148.893 436.773 147.866 436.976L146 437.381L146.003 330.885L146.007 224.387L153.982 222.07C158.369 220.795 162.34 219.608 162.807 219.463C163.482 219.173 163.656 236.523 163.656 304.472C163.656 397.325 163.453 392.149 167.416 394.753C168.795 395.651 171.66 396.057 179.843 396.549C212.363 398.403 243.22 409.32 268.411 427.895C273.843 431.901 286.88 442.902 287.627 444.11C288.149 444.95 287.801 444.863 279.431 441.851L279.429 441.819Z" fill="white"/>
</svg>
